<svg width="8" height="8" viewBox="0 0 8 8" fill="none" xmlns="http://www.w3.org/2000/svg">
<g clip-path="url(#clip0_719_1259)">
<path d="M7.19385 1.89403C6.95716 1.99891 6.70288 2.06978 6.43557 2.10181C6.70827 1.93853 6.91747 1.67944 7.01612 1.37102C6.761 1.5224 6.47838 1.63238 6.17761 1.69135C5.93666 1.43509 5.59367 1.27464 5.21382 1.27464C4.48473 1.27464 3.89341 1.86596 3.89341 2.59561C3.89341 2.6988 3.90532 2.79915 3.92743 2.89609C2.82955 2.84082 1.85697 2.31498 1.20555 1.51616C1.09216 1.71176 1.02697 1.93853 1.02697 2.18005C1.02697 2.63814 1.26026 3.04265 1.61431 3.27934C1.39774 3.27226 1.19421 3.21301 1.01619 3.11408V3.13109C1.01619 3.77088 1.47116 4.30466 2.07552 4.42598C1.9644 4.45603 1.84789 4.4719 1.7277 4.4719C1.64266 4.4719 1.55961 4.46397 1.4791 4.44866C1.6472 4.97308 2.13477 5.35519 2.71276 5.3654C2.26063 5.71974 1.69114 5.93092 1.0726 5.93092C0.966019 5.93092 0.860852 5.92469 0.757385 5.9125C1.3419 6.28753 2.03583 6.5058 2.78136 6.5058C5.2107 6.5058 6.53875 4.49373 6.53875 2.74869C6.53875 2.69199 6.53734 2.63473 6.53479 2.57804C6.79274 2.39152 7.01669 2.15935 7.19329 1.89488L7.19385 1.89403Z" fill="#1DA1F2"/>
</g>
<defs>
<clipPath id="clip0_719_1259">
<rect width="6.80328" height="6.80328" fill="white" transform="translate(0.491791 0.494535)"/>
</clipPath>
</defs>
</svg>
